HIERARCHY
ROOT hip
{
  OFFSET 0 0 0
  CHANNELS 6 Xposition Yposition Zposition Zrotation Yrotation Xrotation
  JOINT abdomen
  {
    OFFSET 0 20.6881 -0.73152
    CHANNELS 3 Zrotation Xrotation Yrotation
    JOINT chest
    {
      OFFSET 0 11.7043 -0.48768
      CHANNELS 3 Zrotation Xrotation Yrotation
      JOINT neck
      {
        OFFSET 0 22.1894 -2.19456
        CHANNELS 3 Zrotation Xrotation Yrotation
        JOINT head
        {
          OFFSET -0.24384 7.07133 1.2192
          CHANNELS 3 Zrotation Xrotation Yrotation
          JOINT leftEye
          {
            OFFSET 4.14528 8.04674 8.04672
            CHANNELS 3 Zrotation Xrotation Yrotation
            End Site
            {
              OFFSET 1 0 0
            }
          }
          JOINT rightEye
          {
            OFFSET -3.6576 8.04674 8.04672
            CHANNELS 3 Zrotation Xrotation Yrotation
            End Site
            {
              OFFSET 1 0 0
            }
          }
        }
      }
      JOINT rCollar
      {
        OFFSET -2.68224 19.2634 -4.8768
        CHANNELS 3 Zrotation Xrotation Yrotation
        JOINT rShldr
        {
          OFFSET -8.77824 -1.95073 1.46304
          CHANNELS 3 Zrotation Xrotation Yrotation
          JOINT rForeArm
          {
            OFFSET -28.1742 -1.7115 0.48768
            CHANNELS 3 Zrotation Xrotation Yrotation
            JOINT rHand
            {
              OFFSET -22.5879 0.773209 7.07136
              CHANNELS 3 Zrotation Xrotation Yrotation
              JOINT rThumb1
              {
                OFFSET -1.2192 -0.487915 3.41376
                CHANNELS 3 Zrotation Xrotation Yrotation
                JOINT rThumb2
                {
                  OFFSET -3.37035 -0.52449 3.41376
                  CHANNELS 3 Zrotation Xrotation Yrotation
                  End Site
                  {
                    OFFSET -1.78271 -1.18214 1.43049
                  }
                }
              }
              JOINT rIndex1
              {
                OFFSET -7.75947 0.938293 5.60832
                CHANNELS 3 Zrotation Xrotation Yrotation
                JOINT rIndex2
                {
                  OFFSET -2.54057 -0.884171 1.56538
                  CHANNELS 3 Zrotation Xrotation Yrotation
                  End Site
                  {
                    OFFSET -1.62519 -0.234802 1.16502
                  }
                }
              }
              JOINT rMid1
              {
                OFFSET -8.24714 1.18213 3.41376
                CHANNELS 3 Zrotation Xrotation Yrotation
                JOINT rMid2
                {
                  OFFSET -3.10165 -0.590103 1.0647
                  CHANNELS 3 Zrotation Xrotation Yrotation
                  End Site
                  {
                    OFFSET -2.48547 -0.328903 0.83742
                  }
                }
              }
              JOINT rRing1
              {
                OFFSET -8.82822 0.546677 1.51678
                CHANNELS 3 Zrotation Xrotation Yrotation
                JOINT rRing2
                {
                  OFFSET -2.60934 -0.819778 -0.0198488
                  CHANNELS 3 Zrotation Xrotation Yrotation
                  End Site
                  {
                    OFFSET -2.33842 -0.294052 0.168128
                  }
                }
              }
              JOINT rPinky1
              {
                OFFSET -8.27202 -0.0477905 -0.4584
                CHANNELS 3 Zrotation Xrotation Yrotation
                JOINT rPinky2
                {
                  OFFSET -1.82734 -0.647385 -0.700984
                  CHANNELS 3 Zrotation Xrotation Yrotation
                  End Site
                  {
                    OFFSET -1.69225 -0.51767 -0.607171
                  }
                }
              }
            }
          }
        }
      }
      JOINT lCollar
      {
        OFFSET 2.68224 19.2634 -4.8768
        CHANNELS 3 Zrotation Xrotation Yrotation
        JOINT lShldr
        {
          OFFSET 8.77824 -1.95073 1.46304
          CHANNELS 3 Zrotation Xrotation Yrotation
          JOINT lForeArm
          {
            OFFSET 28.1742 -1.7115 0.48768
            CHANNELS 3 Zrotation Xrotation Yrotation
            JOINT lHand
            {
              OFFSET 22.5879 0.773209 7.07136
              CHANNELS 3 Zrotation Xrotation Yrotation
              JOINT lThumb1
              {
                OFFSET 1.2192 -0.487915 3.41376
                CHANNELS 3 Zrotation Xrotation Yrotation
                JOINT lThumb2
                {
                  OFFSET 3.37035 -0.52449 3.41376
                  CHANNELS 3 Zrotation Xrotation Yrotation
                  End Site
                  {
                    OFFSET 1.78271 -1.18214 1.43049
                  }
                }
              }
              JOINT lIndex1
              {
                OFFSET 7.75947 0.938293 5.60832
                CHANNELS 3 Zrotation Xrotation Yrotation
                JOINT lIndex2
                {
                  OFFSET 2.54057 -0.884171 1.56538
                  CHANNELS 3 Zrotation Xrotation Yrotation
                  End Site
                  {
                    OFFSET 1.62519 -0.234802 1.16502
                  }
                }
              }
              JOINT lMid1
              {
                OFFSET 8.24714 1.18213 3.41376
                CHANNELS 3 Zrotation Xrotation Yrotation
                JOINT lMid2
                {
                  OFFSET 3.10165 -0.590103 1.0647
                  CHANNELS 3 Zrotation Xrotation Yrotation
                  End Site
                  {
                    OFFSET 2.48547 -0.328903 0.83742
                  }
                }
              }
              JOINT lRing1
              {
                OFFSET 8.82822 0.546677 1.51678
                CHANNELS 3 Zrotation Xrotation Yrotation
                JOINT lRing2
                {
                  OFFSET 2.60934 -0.819778 -0.0198488
                  CHANNELS 3 Zrotation Xrotation Yrotation
                  End Site
                  {
                    OFFSET 2.33842 -0.294052 0.168128
                  }
                }
              }
              JOINT lPinky1
              {
                OFFSET 8.27202 -0.0477905 -0.4584
                CHANNELS 3 Zrotation Xrotation Yrotation
                JOINT lPinky2
                {
                  OFFSET 1.82734 -0.647385 -0.700984
                  CHANNELS 3 Zrotation Xrotation Yrotation
                  End Site
                  {
                    OFFSET 1.69225 -0.51767 -0.607171
                  }
                }
              }
            }
          }
        }
      }
    }
  }
  JOINT rButtock
  {
    OFFSET -8.77824 4.35084 1.2192
    CHANNELS 3 Zrotation Xrotation Yrotation
    JOINT rThigh
    {
      OFFSET 0 -1.70687 -2.19456
      CHANNELS 3 Zrotation Xrotation Yrotation
      JOINT rShin
      {
        OFFSET 0 -36.8199 0.73152
        CHANNELS 3 Zrotation Xrotation Yrotation
        JOINT rFoot
        {
          OFFSET 0.73152 -45.1104 -5.12064
          CHANNELS 3 Zrotation Xrotation Yrotation
          End Site
          {
            OFFSET -1.1221 -3.69964 12.103
          }
        }
      }
    }
  }
  JOINT lButtock
  {
    OFFSET 8.77824 4.35084 1.2192
    CHANNELS 3 Zrotation Xrotation Yrotation
    JOINT lThigh
    {
      OFFSET 0 -1.70687 -2.19456
      CHANNELS 3 Zrotation Xrotation Yrotation
      JOINT lShin
      {
        OFFSET 0 -36.8199 0.73152
        CHANNELS 3 Zrotation Xrotation Yrotation
        JOINT lFoot
        {
          OFFSET -0.73152 -45.1104 -5.12064
          CHANNELS 3 Zrotation Xrotation Yrotation
          End Site
          {
            OFFSET 1.1221 -3.69964 12.103
          }
        }
      }
    }
  }
}
MOTION
Frames:	5
Frame Time:	0.00833333
-3.42921 84.2564 37.5883 0.0 0.0 0.0 -1.24151 -0.00398119 -0.0340788 -0.342494 -0.00249265 -0.0593272 3.61249e-15 -2.38542e-15 -3.10601e-16 1.03772e-14 -6.36111e-15 -8.96084e-16 -0.0 0.0 0.0 -0.0 0.0 0.0 1.63889e-15 3.22249e-17 4.96962e-17 3.89334e-14 6.64686e-16 -2.38542e-15 6.29054e-13 -1.63997e-13 -5.40694e-14 7.19584e-12 3.0255e-13 -6.3293e-13 1.69717e-11 2.9825e-13 -1.4885e-12 2.92925e-11 5.12069e-13 -2.57784e-12 1.69766e-11 2.9937e-13 -1.49804e-12 7.73091 5.47488 0.417314 1.69706e-11 2.97779e-13 -1.4885e-12 2.90554 0.965183 0.102902 1.69841e-11 2.98575e-13 -1.49088e-12 10.2786 0.731801 0.0259123 1.69641e-11 3.00562e-13 -1.48214e-12 2.22167 -0.733487 -0.20892 1.64117e-15 3.10601e-17 -3.47873e-16 3.42364e-14 3.72721e-16 -3.97569e-15 6.30296e-13 2.06537e-13 -6.04305e-14 7.20854e-12 -7.88181e-14 -6.20208e-13 1.70036e-11 2.77605e-13 -1.4885e-12 2.93736e-11 4.80264e-13 -2.56353e-12 1.69981e-11 2.75516e-13 -1.48532e-12 -7.73091 5.47488 -0.417314 1.70031e-11 2.77802e-13 -1.4885e-12 -2.90554 0.965183 -0.102902 1.69994e-11 2.77404e-13 -1.48929e-12 -10.2786 0.731801 -0.0259123 1.70076e-11 2.79094e-13 -1.4885e-12 -2.22167 -0.733487 0.20892 -2.03217e-16 0.0 -3.88251e-19 -0.453836 -1.92099 -0.00952718 -0.00915563 -2.07857 -0.0755524 -0.487457 3.99699 0.136653 2.03217e-16 0.0 3.88251e-19 -1.43728 -5.97115 0.129662 -0.00126422 5.25795 -0.0454137 0.507822 0.710745 -0.0722749
-5.20885 83.7222 36.4444 -3.0951 -1.8094 2.603 -0.580724 -0.881901 0.357642 0.0118689 -0.721032 0.0643716 -0.423379 1.03796 -0.617328 1.46159 1.14378 -1.18916 -0.0 0.0 0.0 -0.0 0.0 0.0 2.2633e-14 1.48478e-14 -6.77848e-15 22.9845 7.50078 -3.82068 -6.23515 -3.39695 9.04849 0.0798399 6.27479 0.862879 4.8052e-11 8.96676e-11 -1.36444e-10 8.10209e-11 1.57546e-10 -2.36695e-10 4.80575e-11 8.96672e-11 -1.36454e-10 7.73091 5.47488 0.417314 4.80515e-11 8.96658e-11 -1.36446e-10 2.90554 0.965183 0.102902 4.80629e-11 8.96664e-11 -1.36448e-10 10.2786 0.731801 0.0259123 4.80451e-11 8.96691e-11 -1.36441e-10 2.22167 -0.733487 -0.20892 2.25652e-14 1.48476e-14 -7.17605e-15 -23.3642 8.6886 2.66556 5.76394 -3.02426 -8.52042 -0.0143466 2.65742 -0.372026 -1.84982e-10 -2.49775e-10 -8.15095e-11 -3.20528e-10 -4.31159e-10 -1.38796e-10 -1.84987e-10 -2.49775e-10 -8.15054e-11 -7.73091 5.47488 -0.417314 -1.84981e-10 -2.49773e-10 -8.15098e-11 -2.90554 0.965183 -0.102902 -1.84988e-10 -2.49773e-10 -8.15104e-11 -10.2786 0.731801 -0.0259123 -1.84979e-10 -2.49771e-10 -8.15094e-11 -2.22167 -0.733487 0.20892 -2.03217e-16 0.0 -3.88251e-19 -6.25098 -2.19074 -0.0101587 -0.00627314 -1.69778 -0.0546357 -0.219098 3.88369 0.095651 2.03217e-16 0.0 3.88251e-19 1.46832 -7.04178 -2.21455 -0.0188997 9.95601 -0.180862 0.778379 -4.93665 4.19204
-5.20587 83.7219 36.4415 -3.0818 -1.8158 2.6131 0.129706 -1.80972 0.772133 0.389788 -1.48181 0.195235 -0.844745 2.13502 -1.26957 3.05542 2.3517 -2.44612 -0.0 0.0 0.0 -0.0 0.0 0.0 4.49376e-14 3.29863e-14 -1.44398e-14 48.4041 15.3187 -8.08151 -11.6741 -6.70566 18.7143 -0.0460657 12.9009 1.80981 9.12003e-11 1.77388e-10 -2.81829e-10 1.53461e-10 3.12124e-10 -4.89129e-10 9.12065e-11 1.77386e-10 -2.81839e-10 7.73091 5.47488 0.417314 9.12004e-11 1.77385e-10 -2.81833e-10 2.90554 0.965183 0.102902 9.12096e-11 1.77385e-10 -2.81835e-10 10.2786 0.731801 0.0259123 9.11941e-11 1.77389e-10 -2.8183e-10 2.22167 -0.733487 -0.20892 4.47949e-14 3.2987e-14 -1.48374e-14 -48.9808 17.8081 5.69486 10.8893 -5.99779 -17.6017 0.0081702 5.46757 -0.768156 -4.06741e-10 -5.16328e-10 -1.6146e-10 -7.04621e-10 -8.91185e-10 -2.7468e-10 -4.06746e-10 -5.16325e-10 -1.61455e-10 -7.73091 5.47488 -0.417314 -4.06739e-10 -5.16325e-10 -1.61461e-10 -2.90554 0.965183 -0.102902 -4.06749e-10 -5.16323e-10 -1.61462e-10 -10.2786 0.731801 -0.0259123 -4.0674e-10 -5.16322e-10 -1.6146e-10 -2.22167 -0.733487 0.20892 -2.03217e-16 0.0 -3.88251e-19 -12.3794 -2.47588 -0.010827 -0.00352843 -1.29526 -0.0325363 0.0643851 3.76391 0.0523232 2.03217e-16 0.0 3.88251e-19 4.44299 -8.15722 -4.70475 -0.0124489 14.9219 -0.329761 1.98961 -10.8074 8.82609
-5.20535 83.7222 36.443 -3.0833 -1.8011 2.6083 0.776893 -2.63727 1.14217 0.729907 -2.15808 0.311975 -1.20297 3.11244 -1.85442 4.52731 3.42541 -3.57317 -0.0 0.0 0.0 -0.0 0.0 0.0 6.46214e-14 4.44791e-14 -2.04348e-14 72.1328 22.0862 -12.2772 -15.5864 -9.17589 27.478 -0.354458 18.8068 2.71836 1.10213e-10 2.68406e-10 -4.06354e-10 1.84478e-10 4.71614e-10 -7.04928e-10 1.10219e-10 2.68403e-10 -4.06365e-10 7.73091 5.47488 0.417314 1.10213e-10 2.68402e-10 -4.0636e-10 2.90554 0.965183 0.102902 1.1022e-10 2.68402e-10 -4.06363e-10 10.2786 0.731801 0.0259123 1.10207e-10 2.68406e-10 -4.06359e-10 2.22167 -0.733487 -0.20892 6.44132e-14 4.44806e-14 -2.08324e-14 -72.737 25.8272 8.78867 14.6696 -8.2718 -25.8134 0.0613424 7.97092 -1.12576 -5.88952e-10 -7.4988e-10 -2.41552e-10 -1.02033e-09 -1.29444e-09 -4.1126e-10 -5.88958e-10 -7.49875e-10 -2.41546e-10 -7.73091 5.47488 -0.417314 -5.8895e-10 -7.49875e-10 -2.41552e-10 -2.90554 0.965183 -0.102902 -5.88963e-10 -7.49874e-10 -2.41553e-10 -10.2786 0.731801 -0.0259123 -5.88952e-10 -7.49872e-10 -2.41551e-10 -2.22167 -0.733487 0.20892 -2.03217e-16 0.0 -3.88251e-19 -17.8453 -2.73025 -0.0114231 -0.00134221 -0.936196 -0.0128316 0.317134 3.65708 0.0136801 2.03217e-16 0.0 3.88251e-19 7.01462 -9.13239 -6.93983 0.0162728 19.3517 -0.470556 3.90119 -15.8639 13.1846
-5.20281 83.7229 36.4475 -3.0785 -1.7832 2.5924 1.24052 -3.2146 1.40003 0.96892 -2.62309 0.3932 -1.45059 3.79213 -2.26847 5.59395 4.1692 -4.37005 -0.0 0.0 0.0 -0.0 0.0 0.0 7.7753e-14 3.93574e-14 -2.22639e-14 89.3253 26.6228 -15.5335 -17.8429 -10.5188 33.6688 -0.691419 22.929 3.40828 6.88845e-11 3.67669e-10 -4.78731e-10 1.11936e-10 6.43385e-10 -8.29141e-10 6.88916e-11 3.67667e-10 -4.78743e-10 7.73091 5.47488 0.417314 6.8885e-11 3.67665e-10 -4.78737e-10 2.90554 0.965183 0.102902 6.88921e-11 3.67665e-10 -4.78739e-10 10.2786 0.731801 0.0259123 6.88803e-11 3.67669e-10 -4.78737e-10 2.22167 -0.733487 -0.20892 7.7503e-14 3.93594e-14 -2.26615e-14 -89.9037 31.3209 11.2954 16.9048 -9.56012 -31.6103 0.117017 9.70855 -1.37779 -6.72296e-10 -9.0093e-10 -3.21993e-10 -1.16509e-09 -1.55575e-09 -5.49576e-10 -6.72302e-10 -9.00924e-10 -3.21987e-10 -7.73091 5.47488 -0.417314 -6.72293e-10 -9.00926e-10 -3.21993e-10 -2.90554 0.965183 -0.102902 -6.72307e-10 -9.00924e-10 -3.21994e-10 -10.2786 0.731801 -0.0259123 -6.72296e-10 -9.00922e-10 -3.21993e-10 -2.22167 -0.733487 0.20892 -2.03217e-16 0.0 -3.88251e-19 -21.655 -2.9077 -0.0118378 3.60328e-05 -0.685757 0.000903913 0.493393 3.58261 -0.0132745 2.03217e-16 0.0 3.88251e-19 8.7655 -9.79794 -8.50877 0.0497779 22.4412 -0.574907 5.71853 -19.2385 16.4036
